<svg width="67" height="37" viewBox="0 0 67 37" fill="none" xmlns="http://www.w3.org/2000/svg">
<g clip-path="url(#clip0_6_79)">
<path fill-rule="evenodd" clip-rule="evenodd" d="M57.7256 26.3041C56.559 27.3976 55.1541 28.4217 53.5315 29.3532C48.2968 32.3583 40.9847 34.2708 32.8409 34.3152C24.6972 34.3595 17.3624 32.5268 12.0918 29.5789C9.69674 28.2394 7.76707 26.6957 6.36886 25.0206L5.07111 24.9881C9.6222 31.1157 20.3562 35.3832 32.847 35.3152C44.1921 35.2534 54.0447 31.6309 59.1111 26.3387L57.7256 26.3041ZM7.68515 10.4001C8.86684 9.27909 10.2981 8.23001 11.9569 7.27773C17.1916 4.27264 24.5037 2.36012 32.6475 2.31576C40.7912 2.27141 48.126 4.10415 53.3966 7.05202C55.8282 8.41201 57.7801 9.9824 59.1832 11.6871L60.4738 11.7194C55.9555 5.55085 45.1842 1.24746 32.6414 1.31578C21.2439 1.37786 11.3527 5.03355 6.30743 10.3656L7.68515 10.4001Z" fill="url(#paint0_linear_6_79)" fill-opacity="0.7" style="mix-blend-mode:multiply"/>
<path d="M1.95895 24.289C1.47896 24.2856 1.14915 24.1766 0.969507 23.962C0.789865 23.7473 0.701352 23.4747 0.703968 23.144C0.706414 22.8347 0.773324 22.4672 0.904695 22.0415C1.03607 21.6157 1.17264 21.206 1.31443 20.8123C1.49989 20.291 1.7234 19.6792 1.98497 18.9771C2.24653 18.2749 2.52434 17.5409 2.81841 16.775C3.12314 16.0091 3.42779 15.2539 3.73236 14.5094C4.04759 13.765 4.35161 13.0898 4.64441 12.4839C3.90834 12.4893 3.28956 12.5009 2.78807 12.5186C2.29725 12.5365 1.85434 12.5653 1.45935 12.6052C1.06444 12.6344 0.631986 12.6899 0.16199 12.7719C0.196858 12.4095 0.385755 12.1282 0.728683 11.9279C1.07161 11.7277 1.5314 11.587 2.10806 11.5058C2.68473 11.4245 3.34105 11.3865 4.07703 11.3918C4.81301 11.397 5.46874 11.4337 6.04422 11.5018C6.63045 11.5593 7.17935 11.6166 7.69091 11.6735C8.20248 11.7305 8.71421 11.7662 9.22611 11.7805C8.86084 12.1086 8.4432 12.3136 7.97321 12.3956C7.50321 12.4776 7.00689 12.5167 6.48423 12.513C6.3669 12.5121 6.24424 12.5113 6.11624 12.5103C5.98833 12.4988 5.86038 12.4925 5.73238 12.4916C5.60438 12.4907 5.47639 12.4898 5.34839 12.4889C5.00032 13.3397 4.59714 14.4142 4.13886 15.7123C3.69124 17.0105 3.23698 18.474 2.77609 20.1027C2.62229 20.667 2.47962 21.1727 2.34808 21.6197C2.2272 22.0669 2.12796 22.4768 2.05034 22.8496C1.98339 23.2225 1.94852 23.5849 1.94573 23.9369C1.94531 23.9902 1.94485 24.0489 1.94434 24.1129C1.94384 24.1769 1.94871 24.2356 1.95895 24.289ZM6.20865 23.6793C5.878 23.6769 5.60156 23.563 5.37933 23.3374C5.14636 23.1224 5.03164 22.7909 5.03519 22.3429C5.03823 21.9589 5.1268 21.5489 5.30093 21.1128C5.47513 20.666 5.71325 20.2303 6.01529 19.8058C6.3174 19.3706 6.65652 18.9784 7.03263 18.629C7.41948 18.2691 7.82175 17.984 8.23943 17.7736C8.66777 17.5633 9.08994 17.4597 9.50593 17.4626C9.92192 17.4656 10.2677 17.5801 10.5432 17.806C10.8189 18.0213 10.9553 18.3103 10.9524 18.673C10.9503 18.9396 10.8742 19.1204 10.7241 19.2153C10.5847 19.3104 10.3976 19.357 10.163 19.3554C10.185 19.2702 10.2017 19.1796 10.2131 19.0837C10.2353 18.9772 10.2467 18.8813 10.2474 18.7959C10.2493 18.5506 10.1923 18.3422 10.0763 18.1707C9.96045 17.9885 9.7585 17.8964 9.47051 17.8944C9.17185 17.8923 8.86702 17.9967 8.556 18.2079C8.24507 18.4083 7.94422 18.6835 7.65345 19.0335C7.36275 19.3727 7.10381 19.7442 6.87661 20.148C6.64941 20.5517 6.47025 20.9504 6.33913 21.3442C6.20801 21.7379 6.14123 22.0894 6.13878 22.3988C6.13549 22.8147 6.27784 23.0238 6.56583 23.0258C6.81116 23.0276 7.07871 22.9175 7.36847 22.6955C7.65832 22.4629 7.95397 22.1717 8.25541 21.8218C8.5676 21.4614 8.86388 21.0901 9.14425 20.7081C9.42461 20.3261 9.67272 19.9759 9.88858 19.6574C9.93175 19.5937 9.95867 19.5619 9.96934 19.562C10.0333 19.5731 10.1131 19.595 10.2088 19.6277C10.3152 19.6604 10.4056 19.7038 10.4798 19.7576C10.554 19.8115 10.5908 19.8811 10.5902 19.9664C10.5894 20.0624 10.5403 20.1954 10.443 20.3654C10.3457 20.5247 10.2376 20.7106 10.1186 20.9231C9.99956 21.1356 9.89116 21.3535 9.7934 21.5768C9.69571 21.7894 9.64611 21.9917 9.64459 22.1837C9.64332 22.3437 9.68472 22.504 9.76879 22.6646C9.85294 22.8146 9.99101 22.8902 10.183 22.8916C10.471 22.8936 10.8513 22.6883 11.3239 22.2757C11.7966 21.8524 12.2763 21.2211 12.7629 20.3819L12.9217 20.543C12.6931 21.1174 12.4011 21.622 12.0457 22.0568C11.6902 22.4916 11.3089 22.8303 10.9016 23.0727C10.505 23.3152 10.1147 23.4351 9.73072 23.4324C9.33606 23.4296 9.04366 23.3101 8.85352 23.0741C8.67405 22.8382 8.58541 22.5815 8.5876 22.3042C8.58811 22.2402 8.59399 22.1709 8.60525 22.0963C8.61659 22.0111 8.62793 21.9258 8.63927 21.8406C8.17572 22.4559 7.75073 22.9169 7.3643 23.2235C6.98852 23.5302 6.60331 23.6821 6.20865 23.6793ZM17.5805 23.3283C17.2072 23.3256 16.9253 23.2276 16.7348 23.0343C16.555 22.841 16.4663 22.595 16.4687 22.2964C16.4704 22.0724 16.5096 21.838 16.5862 21.5932C16.6735 21.3485 16.7555 21.0984 16.8322 20.8429C16.9089 20.5768 16.9483 20.3211 16.9502 20.0757C16.9526 19.7771 16.8902 19.574 16.7631 19.4664C16.6467 19.3482 16.4978 19.2885 16.3165 19.2872C15.9858 19.2848 15.6487 19.4211 15.3052 19.696C14.9618 19.9602 14.6284 20.3045 14.305 20.7289C13.9817 21.1426 13.6796 21.5725 13.3988 22.0185C13.1179 22.4645 12.8694 22.8627 12.6533 23.2132C12.4826 23.212 12.3229 23.1788 12.1741 23.1138C12.0145 23.0593 11.8925 22.9731 11.8081 22.8552C11.8085 22.8018 11.8685 22.6369 11.988 22.3604C12.0969 22.0839 12.2276 21.7435 12.3801 21.3392C12.5326 20.9349 12.6693 20.5199 12.79 20.0941C12.9107 19.6683 12.9724 19.2794 12.9752 18.9274C13.0398 18.8532 13.1417 18.7792 13.281 18.7056C13.4202 18.6319 13.5645 18.5956 13.7138 18.5966C14.0018 18.5987 14.1447 18.7384 14.1425 19.0157C14.1412 19.1864 14.0909 19.474 13.9917 19.8786C13.8926 20.2726 13.7666 20.6877 13.6138 21.124C13.9053 20.6887 14.2287 20.259 14.5841 19.8349C14.9502 19.4001 15.337 19.0402 15.7446 18.7551C16.1522 18.47 16.5587 18.3289 16.964 18.3318C17.38 18.3347 17.6775 18.4862 17.8565 18.7862C18.0461 19.0862 18.1395 19.4175 18.1366 19.7802C18.134 20.1108 18.0782 20.4198 17.9693 20.707C17.8604 20.9836 17.7463 21.2548 17.6268 21.5206C17.5181 21.7758 17.4627 22.0368 17.4606 22.3034C17.4589 22.5274 17.5003 22.6877 17.5848 22.7843C17.6802 22.8703 17.7972 22.9138 17.9358 22.9148C18.2025 22.9167 18.4701 22.796 18.7387 22.5525C19.0074 22.2984 19.2659 21.9803 19.5143 21.598C19.7733 21.2159 20.0004 20.8282 20.1955 20.4349L20.3698 20.6441C20.1417 21.1652 19.8874 21.6274 19.6069 22.0307C19.3263 22.4341 19.0198 22.7519 18.6873 22.9842C18.3548 23.2165 17.9859 23.3312 17.5805 23.3283ZM21.0168 23.4488C20.6008 23.4458 20.2925 23.3103 20.092 23.0422C19.8914 22.7848 19.7925 22.4694 19.7955 22.0961C19.7974 21.8507 19.8425 21.5417 19.9308 21.169C20.0298 20.7964 20.1555 20.4079 20.308 20.0037C20.4607 19.5887 20.6344 19.2006 20.8293 18.8393C21.0348 18.4781 21.2504 18.1863 21.4762 17.9639C21.7021 17.7309 21.9216 17.6151 22.135 17.6166C22.231 17.6173 22.3107 17.6499 22.3742 17.7143C22.4485 17.7682 22.4851 17.8538 22.4842 17.9711C22.4832 18.0991 22.3962 18.3065 22.2233 18.5933C22.061 18.8801 21.8664 19.2094 21.6394 19.5811C21.4125 19.9529 21.212 20.3461 21.0381 20.7609C20.8749 21.1651 20.7918 21.5538 20.7888 21.9271C20.7858 22.3111 20.8478 22.5676 20.9748 22.6965C21.1017 22.8254 21.2986 22.8908 21.5652 22.8927C21.9279 22.8953 22.3133 22.7167 22.7215 22.3569C23.1404 21.9972 23.5827 21.3657 24.0485 20.4623L24.1913 20.6233C23.8747 21.5384 23.4211 22.2392 22.8306 22.7257C22.2507 23.2122 21.6461 23.4533 21.0168 23.4488ZM22.9947 16.1347C22.8241 16.1335 22.6697 16.0897 22.5317 16.0034C22.4044 15.9172 22.3415 15.7834 22.3429 15.602C22.3447 15.3781 22.4742 15.187 22.7315 15.0288C22.9995 14.86 23.2615 14.7766 23.5175 14.7784C23.6775 14.7795 23.8052 14.8178 23.9006 14.8931C23.996 14.9685 24.043 15.0968 24.0415 15.2781C24.0399 15.4808 23.9264 15.6773 23.7009 15.8677C23.4861 16.0475 23.2507 16.1365 22.9947 16.1347ZM25.4498 23.7684C24.7991 23.7638 24.3099 23.5789 23.9821 23.2139C23.6649 22.8596 23.5084 22.4212 23.5125 21.8985C23.5163 21.4186 23.6377 20.9127 23.8765 20.3811C24.1261 19.8495 24.45 19.3505 24.8484 18.884C25.2574 18.4175 25.7031 18.042 26.1854 17.7575C26.6677 17.4622 27.1435 17.3163 27.6129 17.3196C27.8582 17.3214 28.0817 17.387 28.2833 17.5164C28.4956 17.6459 28.6002 17.908 28.5971 18.3027C28.5939 18.708 28.4682 19.0911 28.22 19.452C27.9826 19.8023 27.6654 20.1147 27.2686 20.3893C26.8824 20.6638 26.4539 20.8901 25.9832 21.0681C25.5232 21.2355 25.0637 21.3389 24.6047 21.3783C24.5825 21.4848 24.5657 21.586 24.5543 21.682C24.5428 21.7779 24.5368 21.8685 24.5361 21.9538C24.5349 22.1138 24.5496 22.2739 24.5803 22.4342C24.6217 22.5945 24.6899 22.7443 24.7848 22.8836C24.8798 23.0123 25.007 23.1145 25.1664 23.1904C25.3364 23.2662 25.5441 23.305 25.7895 23.3068C26.2481 23.3101 26.7024 23.1853 27.1525 22.9325C27.6026 22.669 28.0213 22.3253 28.4087 21.9014C28.796 21.4775 29.1251 21.0105 29.3958 20.5004L29.5866 20.6458C29.2936 21.2837 28.9212 21.8357 28.4695 22.3019C28.0285 22.7681 27.5456 23.1273 27.0209 23.3796C26.5068 23.6426 25.9831 23.7722 25.4498 23.7684ZM24.6871 21.0749C24.9758 20.9809 25.3022 20.8446 25.6663 20.6659C26.0305 20.4764 26.3789 20.2549 26.7116 20.0013C27.055 19.7477 27.3345 19.467 27.5503 19.1592C27.7768 18.8515 27.8913 18.527 27.894 18.1857C27.895 18.0683 27.8743 17.9775 27.8322 17.9132C27.79 17.8489 27.6996 17.8163 27.5609 17.8153C27.305 17.8135 27.0322 17.9128 26.7426 18.1135C26.4531 18.3034 26.1737 18.5574 25.9045 18.8755C25.6353 19.1936 25.3925 19.5439 25.1762 19.9263C24.9598 20.3088 24.7968 20.6917 24.6871 21.0749ZM36.1962 24.533C35.8229 24.5303 35.4128 24.4527 34.966 24.3002C34.5192 24.1477 34.0567 23.9577 33.5785 23.7303C33.1108 23.5136 32.6432 23.297 32.1756 23.0803C31.8107 23.355 31.457 23.5712 31.1144 23.7287C30.7718 23.8863 30.4405 23.964 30.1205 23.9617C29.8112 23.9595 29.5451 23.8882 29.3222 23.748C29.1099 23.6185 28.9459 23.452 28.8301 23.2485C28.7143 23.0556 28.6572 22.8632 28.6587 22.6712C28.6605 22.4472 28.758 22.2559 28.9512 22.0973C29.1339 21.9279 29.4493 21.8448 29.8972 21.848C30.2066 21.8502 30.5422 21.8953 30.9042 21.9832C31.2769 22.0605 31.6655 22.1593 32.0699 22.2795C32.5861 21.7499 33.1139 21.1083 33.6532 20.3548C34.2032 19.5907 34.7268 18.805 35.2239 17.9979C34.8291 18.0057 34.4823 18.0246 34.1834 18.0545C33.8952 18.0738 33.5483 18.1086 33.1425 18.1591L32.5979 18.2352C32.6216 17.9367 32.7407 17.7082 32.9553 17.5497C33.1699 17.3912 33.4535 17.2813 33.806 17.2198C34.1691 17.1583 34.564 17.1292 34.9907 17.1322C35.108 17.133 35.2253 17.1392 35.3426 17.1507C35.4706 17.1516 35.5932 17.1578 35.7104 17.1693C36.1322 16.4363 36.5111 15.7403 36.847 15.0814C37.183 14.4118 37.4381 13.8482 37.6124 13.3908C37.4421 13.3469 37.2505 13.2869 37.0378 13.2107C36.8251 13.1238 36.6018 13.0369 36.3678 12.9499C35.8574 12.7436 35.315 12.5424 34.7406 12.3463C34.1768 12.1503 33.6549 12.0506 33.1749 12.0471C32.8335 12.0447 32.5237 12.1118 32.2452 12.2485C31.9775 12.3853 31.7623 12.6238 31.5996 12.9639C31.437 13.2935 31.3533 13.7515 31.3487 14.3382C31.348 14.4235 31.3474 14.4982 31.3469 14.5622C31.3571 14.6262 31.3673 14.685 31.3775 14.7384C31.3878 14.7918 31.398 14.8452 31.4083 14.8986C31.0994 14.8431 30.8763 14.7188 30.7392 14.5258C30.6128 14.3223 30.5509 14.0605 30.5534 13.7405C30.559 13.0259 30.8406 12.4892 31.3982 12.1305C31.9557 11.7718 32.7091 11.5958 33.6584 11.6026C34.2237 11.6066 34.7459 11.6637 35.2251 11.7737C35.715 11.8732 36.1834 11.9939 36.6303 12.1358C37.0772 12.2776 37.5082 12.4034 37.9233 12.513C38.3492 12.612 38.7702 12.663 39.1862 12.666C39.2928 12.6667 39.3835 12.6674 39.4582 12.6679C39.5436 12.6579 39.6237 12.6478 39.6984 12.6376C39.5481 12.7646 39.4032 12.8755 39.2638 12.9705C39.1351 13.055 39.0118 13.1288 38.894 13.1919C38.6549 13.7449 38.3513 14.3774 37.983 15.0895C37.6254 15.7909 37.225 16.5188 36.7816 17.273C37.1014 17.3072 37.3998 17.3414 37.6769 17.3753C37.9646 17.4094 38.2311 17.4273 38.4765 17.429C38.3578 17.5989 38.2235 17.7206 38.0736 17.7942C37.9343 17.8679 37.7313 17.9144 37.4644 17.9338C37.2083 17.9534 36.8402 17.9667 36.3601 17.974C35.8306 18.8342 35.2587 19.6622 34.6444 20.4578C34.0407 21.2535 33.438 21.9373 32.8361 22.509C33.5277 22.7273 34.2141 22.9348 34.8952 23.1317C35.587 23.3286 36.2049 23.429 36.7489 23.4329C36.9729 23.4345 37.1757 23.4146 37.3574 23.3732C37.5391 23.3318 37.7156 23.2691 37.8869 23.185C37.7124 23.6744 37.4803 24.0194 37.1907 24.2201C36.9117 24.4314 36.5802 24.5357 36.1962 24.533ZM30.044 23.5291C30.2573 23.5306 30.4872 23.4629 30.7336 23.326C30.9906 23.1999 31.2533 23.0204 31.5219 22.7876C31.1711 22.6358 30.836 22.5107 30.5168 22.4125C30.1976 22.3142 29.9153 22.2642 29.67 22.2624C29.4353 22.2607 29.275 22.2969 29.1891 22.371C29.1138 22.4451 29.0758 22.5355 29.0749 22.6422C29.0736 22.8129 29.1574 23.0001 29.3265 23.204C29.5061 23.4186 29.7453 23.527 30.044 23.5291ZM39.9109 23.9194C39.5803 23.9171 39.3038 23.8031 39.0816 23.5775C38.8486 23.3625 38.7339 23.031 38.7375 22.583C38.7405 22.199 38.8291 21.789 39.0032 21.3529C39.1774 20.9061 39.4155 20.4705 39.7176 20.046C40.0197 19.6108 40.3588 19.2185 40.7349 18.8692C41.1218 18.5093 41.524 18.2241 41.9417 18.0138C42.37 17.8035 42.7922 17.6998 43.2082 17.7028C43.6242 17.7057 43.97 17.8202 44.2455 18.0462C44.5211 18.2615 44.6575 18.5505 44.6547 18.9131C44.6526 19.1798 44.5765 19.3606 44.4264 19.4555C44.2869 19.5505 44.0999 19.5972 43.8652 19.5955C43.8873 19.5103 43.904 19.4198 43.9154 19.3238C43.9376 19.2173 43.949 19.1214 43.9497 19.0361C43.9516 18.7908 43.8946 18.5823 43.7786 18.4109C43.6627 18.2287 43.4608 18.1366 43.1728 18.1345C42.8741 18.1324 42.5693 18.2369 42.2583 18.448C41.9473 18.6485 41.6465 18.9237 41.3557 19.2736C41.065 19.6129 40.8061 19.9844 40.5789 20.3881C40.3517 20.7918 40.1725 21.1906 40.0414 21.5843C39.9103 21.978 39.8435 22.3296 39.841 22.6389C39.8378 23.0549 39.9801 23.2639 40.2681 23.266C40.5134 23.2677 40.781 23.1576 41.0707 22.9357C41.3606 22.7031 41.6562 22.4118 41.9577 22.062C42.2699 21.7015 42.5661 21.3303 42.8465 20.9483C43.1269 20.5663 43.375 20.216 43.5908 19.8976C43.634 19.8339 43.6609 19.802 43.6716 19.8021C43.7355 19.8132 43.8153 19.8351 43.9111 19.8678C44.0175 19.9006 44.1078 19.9439 44.1821 19.9978C44.2563 20.0516 44.2931 20.1212 44.2924 20.2066C44.2917 20.3026 44.2426 20.4355 44.1453 20.6055C44.048 20.7648 43.9399 20.9507 43.8208 21.1632C43.7018 21.3757 43.5934 21.5936 43.4957 21.8169C43.398 22.0296 43.3484 22.2319 43.3469 22.4239C43.3456 22.5839 43.387 22.7442 43.4711 22.9048C43.5552 23.0547 43.6933 23.1304 43.8853 23.1317C44.1733 23.1338 44.5536 22.9285 45.0262 22.5158C45.4989 22.0925 45.9786 21.4613 46.4652 20.6221L46.6239 20.7832C46.3954 21.3576 46.1034 21.8622 45.7479 22.297C45.3925 22.7318 45.0111 23.0704 44.6039 23.3129C44.2073 23.5554 43.817 23.6753 43.433 23.6725C43.0383 23.6697 42.7459 23.5503 42.5558 23.3143C42.3763 23.0783 42.2877 22.8217 42.2899 22.5443C42.2904 22.4803 42.2963 22.4111 42.3075 22.3365C42.3189 22.2512 42.3302 22.166 42.3415 22.0807C41.878 22.6961 41.453 23.1571 41.0666 23.4637C40.6908 23.7703 40.3056 23.9222 39.9109 23.9194ZM48.8821 23.6473C48.5194 23.6448 48.2322 23.5467 48.0204 23.3532C47.8193 23.1598 47.7199 22.9084 47.7224 22.5991C47.7249 22.2791 47.8022 21.9436 47.9543 21.5927C48.1064 21.2418 48.2532 20.8961 48.3945 20.5558C48.5467 20.2049 48.6238 19.8907 48.626 19.6134C48.6287 19.2721 48.5294 19.0207 48.328 18.8593C48.1373 18.6872 47.9412 18.5312 47.7396 18.3911C47.4893 19.0186 47.2286 19.6141 46.9575 20.1775C46.6864 20.741 46.4643 21.1661 46.2914 21.4528L46.1495 21.1798C46.3011 20.9036 46.4963 20.4996 46.7351 19.968C46.9847 19.4364 47.2295 18.8301 47.4695 18.1491C47.3637 18.0417 47.3114 17.9133 47.3126 17.764C47.3151 17.444 47.4078 17.1833 47.5908 16.982C47.7737 16.7806 47.9078 16.6802 47.9932 16.6808C48.1105 16.6817 48.1741 16.7355 48.1839 16.8422C48.2045 16.9384 48.2146 17.0131 48.2141 17.0664C48.2137 17.1198 48.1809 17.2262 48.1156 17.3857C48.0611 17.5347 48.0337 17.6252 48.0335 17.6572C48.0323 17.8065 48.1112 17.9457 48.2702 18.0748C48.4399 18.1934 48.6308 18.3334 48.8429 18.4949C49.055 18.6458 49.2402 18.8338 49.3984 19.0589C49.5674 19.2735 49.6505 19.5514 49.6478 19.8927C49.6453 20.2127 49.5734 20.5375 49.4321 20.8672C49.3015 21.1969 49.1657 21.5106 49.0247 21.8083C48.8943 22.1061 48.8282 22.3669 48.8265 22.5909C48.8249 22.7829 48.8719 22.9113 48.9674 22.9759C49.0629 23.0406 49.1746 23.0734 49.3026 23.0743C49.5586 23.0762 49.8206 22.998 50.0885 22.8399C50.3671 22.6819 50.6354 22.4811 50.8933 22.2376C51.1512 21.9941 51.3826 21.7398 51.5874 21.4746C51.7922 21.1987 51.9436 20.9438 52.0414 20.7098L52.2482 20.8713C52.042 21.3178 51.7611 21.7585 51.4057 22.1933C51.0503 22.6174 50.6529 22.9666 50.2134 23.2408C49.7845 23.5151 49.3408 23.6506 48.8821 23.6473ZM53.3847 24.1594C52.8727 24.1558 52.4474 23.9821 52.1088 23.6383C51.7701 23.2946 51.6035 22.7814 51.6089 22.0987C51.6132 21.5654 51.7186 21.0488 51.9252 20.549C52.1426 20.0385 52.4235 19.5818 52.7681 19.1789C53.1126 18.776 53.4938 18.4587 53.9116 18.227C54.3296 17.9847 54.7412 17.865 55.1465 17.8678C55.5838 17.871 55.8815 18.0011 56.0394 18.2582C56.1974 18.5153 56.2753 18.7826 56.2731 19.0599C56.2707 19.3692 56.1939 19.6407 56.0427 19.8743C55.9021 20.1079 55.7092 20.2239 55.4639 20.2222C55.2826 20.2209 55.1285 20.1398 55.0018 19.9789C55.1625 19.8947 55.3025 19.725 55.4218 19.4698C55.5413 19.204 55.6019 18.9538 55.6038 18.7191C55.6048 18.5911 55.5789 18.4949 55.5261 18.4306C55.484 18.3556 55.3936 18.3176 55.255 18.3166C54.967 18.3146 54.6673 18.4404 54.3559 18.6942C54.0553 18.9481 53.77 19.2767 53.5001 19.6802C53.2409 20.0836 53.0242 20.5088 52.85 20.9556C52.6865 21.4024 52.6031 21.8231 52.6 22.2178C52.5974 22.5485 52.675 22.853 52.8328 23.1315C52.9906 23.4099 53.2988 23.5508 53.7575 23.5541C54.1841 23.5571 54.6117 23.4428 55.0402 23.2112C55.4794 22.9797 55.8874 22.6466 56.2642 22.2119C56.641 21.7773 56.9437 21.2674 57.1723 20.6823L57.379 20.8438C57.1286 21.4821 56.7881 22.0556 56.3574 22.5646C55.9268 23.0629 55.4543 23.4542 54.9401 23.7385C54.4258 24.0229 53.9073 24.1632 53.3847 24.1594ZM58.0002 23.7123C57.5843 23.7094 57.276 23.5738 57.0754 23.3057C56.8748 23.0483 56.776 22.7329 56.7789 22.3596C56.7808 22.1143 56.826 21.8052 56.9142 21.4325C57.0132 21.0599 57.1389 20.6714 57.2915 20.2672C57.4441 19.8523 57.6178 19.4642 57.8127 19.1029C58.0182 18.7417 58.2339 18.4499 58.4596 18.2275C58.6855 17.9944 58.9051 17.8786 59.1184 17.8801C59.2144 17.8808 59.2942 17.9134 59.3576 17.9778C59.4319 18.0317 59.4685 18.1173 59.4676 18.2346C59.4666 18.3626 59.3796 18.57 59.2067 18.8568C59.0444 19.1436 58.8498 19.4729 58.6229 19.8447C58.3959 20.2164 58.1955 20.6096 58.0215 21.0244C57.8583 21.4286 57.7752 21.8173 57.7723 22.1907C57.7692 22.5746 57.8312 22.8311 57.9582 22.96C58.0852 23.0889 58.282 23.1543 58.5487 23.1562C58.9113 23.1588 59.2967 22.9802 59.7049 22.6204C60.1238 22.2607 60.5661 21.6292 61.032 20.7258L61.1747 20.8869C60.8581 21.802 60.4046 22.5028 59.814 22.9892C59.2342 23.4758 58.6296 23.7168 58.0002 23.7123ZM59.9782 16.3982C59.8075 16.397 59.6532 16.3532 59.5152 16.2669C59.3879 16.1807 59.3249 16.0469 59.3263 15.8656C59.3281 15.6416 59.4576 15.4505 59.7149 15.2923C59.9829 15.1236 60.2449 15.0401 60.5009 15.0419C60.6609 15.0431 60.7886 15.0813 60.884 15.1567C60.9794 15.232 61.0264 15.3603 61.025 15.5417C61.0234 15.7443 60.9098 15.9409 60.6843 16.1313C60.4695 16.3111 60.2341 16.4001 59.9782 16.3982ZM62.4332 24.0319C61.7826 24.0273 61.2934 23.8425 60.9656 23.4774C60.6484 23.1232 60.4918 22.6847 60.496 22.1621C60.4998 21.6821 60.6211 21.1763 60.86 20.6446C61.1095 20.1131 61.4335 19.614 61.8318 19.1475C62.2409 18.6811 62.6865 18.3056 63.1688 18.021C63.6511 17.7258 64.127 17.5798 64.5963 17.5832C64.8416 17.5849 65.0651 17.6505 65.2668 17.7799C65.4791 17.9095 65.5837 18.1715 65.5806 18.5662C65.5774 18.9715 65.4517 19.3546 65.2035 19.7155C64.966 20.0659 64.6489 20.3783 64.252 20.6528C63.8658 20.9274 63.4374 21.1537 62.9666 21.3316C62.5066 21.499 62.0471 21.6024 61.5881 21.6418C61.5659 21.7483 61.5491 21.8496 61.5377 21.9455C61.5263 22.0414 61.5202 22.132 61.5196 22.2174C61.5183 22.3774 61.533 22.5375 61.5638 22.6977C61.6052 22.858 61.6733 23.0078 61.7682 23.1472C61.8632 23.2758 61.9904 23.3781 62.1498 23.4539C62.3199 23.5298 62.5276 23.5686 62.7729 23.5703C63.2315 23.5736 63.6859 23.4488 64.1359 23.196C64.586 22.9326 65.0047 22.5889 65.3921 22.165C65.7795 21.741 66.1085 21.274 66.3792 20.7639L66.5701 20.9093C66.277 21.5472 65.9046 22.0993 65.4529 22.5654C65.0119 23.0316 64.529 23.3908 64.0044 23.6431C63.4903 23.9061 62.9665 24.0357 62.4332 24.0319ZM61.6705 21.3384C61.9593 21.2445 62.2857 21.1081 62.6498 20.9294C63.014 20.74 63.3624 20.5184 63.6951 20.2648C64.0384 20.0113 64.318 19.7306 64.5337 19.4228C64.7602 19.115 64.8748 18.7905 64.8775 18.4492C64.8784 18.3319 64.8578 18.241 64.8156 18.1767C64.7735 18.1124 64.683 18.0798 64.5444 18.0788C64.2884 18.077 64.0156 18.1764 63.726 18.377C63.4365 18.5669 63.1571 18.8209 62.8879 19.139C62.6188 19.4571 62.376 19.8074 62.1596 20.1899C61.9432 20.5723 61.7802 20.9552 61.6705 21.3384Z" fill="url(#paint1_linear_6_79)"/>
</g>
<defs>
<linearGradient id="paint0_linear_6_79" x1="32.6694" y1="1.31563" x2="32.8546" y2="35.3151" gradientUnits="userSpaceOnUse">
<stop offset="0.00510833" stop-color="#FFD93D"/>
<stop offset="0.00520833" stop-color="#FFD93D"/>
<stop offset="0.0520833" stop-color="#997B00"/>
<stop offset="0.32866" stop-color="#010101"/>
<stop offset="0.723958" stop-color="#0A0A0A"/>
<stop offset="0.9375" stop-color="#A08100"/>
<stop offset="1" stop-color="#FFD93D"/>
</linearGradient>
<linearGradient id="paint1_linear_6_79" x1="33.3063" y1="8.11998" x2="33.2192" y2="20.343" gradientUnits="userSpaceOnUse">
<stop stop-color="#FFE600" stop-opacity="0.7"/>
<stop offset="1" stop-color="#1A1A1A"/>
</linearGradient>
<clipPath id="clip0_6_79">
<rect width="66.798" height="35.3839" fill="white" transform="translate(0 1) rotate(-0.328793)"/>
</clipPath>
</defs>
</svg>
